<?xml version="1.0" encoding="UTF-8" standalone="no"?>
<!-- Created with Inkscape (http://www.inkscape.org/) -->

<svg
   xmlns:dc="http://purl.org/dc/elements/1.1/"
   xmlns:cc="http://creativecommons.org/ns#"
   xmlns:rdf="http://www.w3.org/1999/02/22-rdf-syntax-ns#"
   xmlns:svg="http://www.w3.org/2000/svg"
   xmlns="http://www.w3.org/2000/svg"
   xmlns:sodipodi="http://sodipodi.sourceforge.net/DTD/sodipodi-0.dtd"
   xmlns:inkscape="http://www.inkscape.org/namespaces/inkscape"
   version="1.0"
   width="426.85175"
   height="215.93854"
   id="Logo_DPD"
   xml:space="preserve"
   inkscape:version="0.48.4 r9939"
   sodipodi:docname="Logo_DPD.svg"><metadata
     id="metadata11"><rdf:RDF><cc:Work
         rdf:about=""><dc:format>image/svg+xml</dc:format><dc:type
           rdf:resource="http://purl.org/dc/dcmitype/StillImage" /></cc:Work></rdf:RDF></metadata><defs
     id="defs9" /><sodipodi:namedview
     pagecolor="#ffffff"
     bordercolor="#666666"
     borderopacity="1"
     objecttolerance="10"
     gridtolerance="10"
     guidetolerance="10"
     inkscape:pageopacity="0"
     inkscape:pageshadow="2"
     inkscape:window-width="1366"
     inkscape:window-height="692"
     id="namedview7"
     showgrid="false"
     fit-margin-top="0"
     fit-margin-left="0"
     fit-margin-right="0"
     fit-margin-bottom="0"
     inkscape:zoom="0.72943767"
     inkscape:cx="112.32838"
     inkscape:cy="30.446966"
     inkscape:window-x="0"
     inkscape:window-y="306"
     inkscape:window-maximized="1"
     inkscape:current-layer="Logo_DPD" /><path
     d="m 404.38326,116.59535 22.4685,-12.95781 0,-69.091689 -59.88001,-34.5209277 -22.4602,12.9495057 59.87171,34.512617 0,69.108304 m -164.58907,-0.0249 -22.4602,-12.95781 0,-69.091688 L 277.21401,0 l 22.45189,12.957813 -59.87171,34.51262 0,69.099997 m 142.20363,38.90665 0,25.91561 -59.8468,34.54585 -59.83849,-34.59568 0,-25.90731 59.83849,34.59568 59.8468,-34.55415"
     id="rot"
     style="fill:#ed232a;fill-opacity:1;fill-rule:nonzero;stroke:none"
     inkscape:connector-curvature="0" /><path
     d="m 254.78704,133.88904 0,-77.771762 67.27262,-38.873422 67.37229,38.890035 0,77.738539 -67.31416,38.85681 -67.33075,-38.8402 z M 277.23893,60.461466 322.11779,86.37708 367.00497,60.453159 322.11779,34.529238 277.23893,60.461466 z m 37.3866,90.613274 0,-51.81461 -44.87887,-25.899001 0,51.831231 44.87887,25.88238 z m 59.78034,-77.630548 -44.88717,25.915618 0.0332,51.80631 44.88718,-25.899 -0.0332,-51.822928"
     id="paketbox"
     style="fill:#292526;fill-opacity:1;fill-rule:nonzero;stroke:none"
     inkscape:connector-curvature="0" /><path
     d="m 0,34.687058 29.562075,0 c 21.081356,0 33.681992,12.799988 33.681992,34.089001 0,22.534956 -12.791687,34.670441 -33.681992,34.670441 L 0,103.4465 0,34.687058 z m 17.351829,53.891189 8.472412,0 c 13.58909,-0.282415 20.067987,-6.121734 20.067987,-19.901864 0,-12.509268 -7.816211,-19.121071 -20.067987,-19.121071 l -8.472412,0 0,39.022935 m 55.02915,-53.891189 33.748441,0 c 12.8,0 24.85241,5.872545 24.85241,22.14456 0,17.044501 -9.72665,23.68953 -24.85241,23.68953 l -16.363384,0 0,22.925352 -17.385057,0 0,-68.759442 z m 17.385057,32.519112 13.688764,0 c 5.55691,0 10.14197,-2.857362 10.14197,-9.120302 0,-6.445679 -4.68474,-9.602068 -10.14197,-9.602068 l -13.688764,0 0,18.72237 m 51.166724,-32.519112 29.55377,0 c 21.1229,0 33.71522,12.799988 33.71522,34.089001 0,22.534956 -12.79168,34.670441 -33.71522,34.670441 l -29.55377,0 0,-68.759442 z m 17.37676,53.891189 8.48072,0 c 13.58078,-0.282415 20.06798,-6.121734 20.06798,-19.901864 0,-12.509268 -7.85774,-19.121071 -20.06798,-19.121071 l -8.48072,0 0,39.022935"
     id="text_DPD"
     style="fill:#292526;fill-opacity:1;fill-rule:nonzero;stroke:none"
     inkscape:connector-curvature="0" /></svg>